<svg xmlns="http://www.w3.org/2000/svg" width="256" height="256" viewBox="0 0 256 256">
<!-- SVG created with Arrow, by QuiverAI (https://quiver.ai) -->
  <rect x="58.74" y="6" width="139.4" height="245.3" fill="#000"/>
  <path d="m64.61 12h126.4v27.18c0 4.2-2.2 5.74-5.26 5.74h-116.1c-3.25 0-5.01-2.35-5.01-5.66v-27.26z" fill="#F9F5D7"/>
  <path d="m64.58 49.82h126.4v156.1h-126.4v-156.1z" fill="#18E0CD"/>
  <path d="m76.22 237.3-6.3-18.83h3.84l2.71 14.19h0.05l2.86-14.19h3.81l-4.78 18.83h-2.19z" fill="#F9F5D7"/>
  <path d="m87.06 237.3v-18.83h3.25v18.83h-3.25z" fill="#F9F5D7"/>
  <path d="m95.08 231.9 3.1-0.45c0.15 1.87 0.73 3.57 2.63 3.57 1.3 0 1.91-0.86 1.91-2.1 0-1.6-1.05-2.41-2.73-3.58l-2.08-1.45c-1.6-1.12-2.7-2.52-2.7-4.68 0-2.76 1.9-4.67 5.05-4.67 3.45 0 4.82 2.26 5.07 4.84l-2.92 0.43c-0.12-1.5-0.62-2.79-2.2-2.79-1.2 0-1.85 0.91-1.85 2.01 0 1.32 0.83 2.12 2.2 3.09l2.26 1.62c1.87 1.3 3.19 2.87 3.19 5.28 0 2.81-2.02 4.6-5.1 4.6-3.47 0-5.48-1.89-5.83-5.72z" fill="#F9F5D7"/>
  <path d="m111 232.2v-13.76h3.29v13.49c0 1.89 0.5 2.82 2.1 2.82 1.57 0 2.07-0.98 2.07-2.8v-13.51h3.27v13.64c0 3.55-1.75 5.42-5.37 5.42-3.57 0-5.36-1.8-5.36-5.3z" fill="#F9F5D7"/>
  <path d="m127.1 218.4h5.06c3.89 0 6.09 1.38 6.09 5.41 0 2.22-0.72 3.87-2.2 4.67l2.58 8.75h-3.4l-2.17-7.93h-2.53v7.93h-3.43v-18.83zm4.88 8.58c1.95 0 2.77-0.87 2.77-3.07 0-2.07-0.65-3.05-2.62-3.05h-1.77v6.12h1.62z" fill="#F9F5D7"/>
  <path d="m143.3 218.4h8.9v2.51h-5.55v5.32h4.98v2.5h-4.98v6.03h5.75v2.47h-9.1v-18.83z" fill="#F9F5D7"/>
  <path d="m156.8 218.4h2.88l5.34 11.25h0.08v-11.25h2.98v18.83h-2.68l-5.4-11.85h-0.07v11.85h-3.13v-18.83z" fill="#F9F5D7"/>
  <path d="m177.2 218.4h3.79l4.17 18.88h-3.37l-0.95-4.42h-4.07l-1 4.42h-3.25l4.68-18.88zm3.14 12.09-1.55-8.28h-0.1l-1.62 8.28h3.27z" fill="#F9F5D7"/>
  <path d="m73.78 31.29v-5.23c0-2.79 1.13-3.88 3.4-3.88 2.56 0 3.33 1.24 3.48 3.76l-2.05 0.3c-0.1-1.63-0.4-2.37-1.38-2.37-1.07 0-1.37 0.82-1.37 2.24v5.06c0 1.37 0.4 2.19 1.45 2.19 1 0 1.45-1 1.45-2.44v-0.73h-1.35v-1.42h3.32v6.14h-1.42l-0.13-1.55c-0.4 1.13-1.2 1.7-2.37 1.7-2.03 0-3.03-1.37-3.03-3.77z" fill="#000"/>
  <path d="m83.32 22.35h5.79v1.57h-3.64v3.7h3.24v1.55h-3.24v4.19h3.77v1.53h-5.92v-12.54z" fill="#000"/>
  <path d="m91.07 22.35h1.8l3.49 7.57h0.05v-7.57h1.9v12.54h-1.7l-3.59-7.85h-0.05v7.85h-1.9v-12.54z" fill="#000"/>
  <path d="m100.3 22.35h5.8v1.57h-3.65v3.7h3.25v1.55h-3.25v4.19h3.77v1.53h-5.92v-12.54z" fill="#000"/>
  <path d="m107.9 22.35h3.1c2.42 0 3.77 0.9 3.77 3.54 0 1.5-0.47 2.63-1.45 3.18l1.6 5.82h-2.17l-1.35-5.27h-1.5v5.27h-2v-12.54zm3 5.82c1.25 0 1.8-0.6 1.8-2.13 0-1.38-0.45-2.05-1.75-2.05h-1.1v4.18h1.05z" fill="#000"/>
  <path d="m118.6 22.3h2.4l2.7 12.59h-2.1l-0.65-2.95h-2.65l-0.7 2.95h-2l3-12.59zm2.03 8.19-1.03-5.53h-0.07l-1.08 5.53h2.18z" fill="#000"/>
  <path d="m125.8 23.97h-2.55v-1.62h7.15v1.62h-2.5v10.92h-2.1v-10.92z" fill="#000"/>
  <path d="m131.1 22.35h5.8v1.57h-3.65v3.7h3.25v1.55h-3.25v4.19h3.77v1.53h-5.92v-12.54z" fill="#000"/>
  <path d="m138.6 22.35h2.98c3.12 0 4.42 1.17 4.42 4.74v3.33c-0.07 3.24-1.42 4.47-4.42 4.47h-2.98v-12.54zm3.03 10.99c1.9 0 2.27-1.2 2.27-3.5v-2.65c0-2.3-0.57-3.25-2.32-3.25h-0.98v9.4h1.03z" fill="#000"/>
  <path d="m150.1 22.35h2.02l1.55 8.47h0.05l1.95-8.47h1.67l2 8.49h0.05l1.43-8.49h2.02l-2.57 12.61h-1.75l-2-8.44h-0.07l-1.93 8.44h-1.77l-2.65-12.61z" fill="#000"/>
  <path d="m163.7 22.35h2.05v12.54h-2.05v-12.54z" fill="#000"/>
  <path d="m169.4 23.97h-2.3v-1.62h6.7v1.62h-2.3v10.92h-2.1v-10.92z" fill="#000"/>
  <path d="m175.1 22.35h2.1v5.37h2.75v-5.37h2.1v12.54h-2.1v-5.57h-2.75v5.57h-2.1v-12.54z" fill="#000"/>
  <path d="m97.68 76.61h25.94l21.22 97.68h-22.24l-3.39-19.97h-17.7l-3.83 19.97h-22.02l22.02-97.68zm19.31 60.33-6.88-40.82h-0.4l-5.69 40.82h12.97z" fill="#FEFFFF"/>
  <path d="m150.5 76.61h21.22v97.68h-21.22v-97.68z" fill="#FEFFFF"/>
</svg>