<svg xmlns="http://www.w3.org/2000/svg" width="256" height="256" viewBox="0 0 256 256" fill="none">
<path d="M 41.09,7.41 V 215.08 C 41.09,215.93 41.63,216.69 42.43,217 L 126.95,249.09 C 127.49,249.31 128.1,249.31 128.65,249.09 L 213.55,217.01 C 214.36,216.7 214.91,215.93 214.91,215.07 V 7.41 C 214.91,6.21 213.93,5.23 212.73,5.23 H 41.27 C 40.07,5.23 41.09,6.21 41.09,7.41 Z" fill="black"/>
<path d="M 43.71,8.86 V 214.01 C 43.71,214.74 44.18,215.41 44.88,215.68 L 127.07,247.01 C 127.57,247.21 128.12,247.21 128.62,247.01 L 211.41,215.69 C 212.12,215.41 212.6,214.74 212.6,214.01 V 8.86 C 212.6,7.86 211.71,7.05 210.61,7.05 H 45.69 C 44.6,7.05 43.71,7.86 43.71,8.86 Z" fill="#003C46"/>
<path d="M 46.79,12.69 V 211.29 C 46.79,211.86 47.16,212.37 47.73,212.6 L 127.11,243.16 C 127.56,243.34 128.07,243.34 128.52,243.16 L 208.44,212.61 C 209.01,212.38 209.39,211.87 209.39,211.3 V 12.69 C 209.39,11.89 208.66,11.23 207.76,11.23 H 48.42 C 47.52,11.23 46.79,11.88 46.79,12.69 Z" fill="#F7F9E5"/>
<path d="M 50.99,15.91 V 208.16 C 50.99,208.7 51.34,209.19 51.88,209.4 L 127.19,238.28 C 127.62,238.45 128.11,238.45 128.54,238.28 L 204.48,209.39 C 205.02,209.18 205.37,208.69 205.37,208.16 V 15.91 C 205.37,15.15 204.68,14.53 203.83,14.53 H 52.53 C 51.68,14.53 50.99,15.15 50.99,15.91 Z" fill="#003C46"/>
<path d="M 53.42,20.02 V 206.07 C 53.42,206.56 53.74,207.01 54.23,207.21 L 127.17,234.9 C 127.57,235.06 128.03,235.06 128.43,234.9 L 201.92,207.2 C 202.42,207 202.74,206.56 202.74,206.06 V 20.02 C 202.74,19.31 202.09,18.73 201.31,18.73 H 54.85 C 54.07,18.73 53.42,19.31 53.42,20.02 Z" fill="#00313A" stroke="#00505B" stroke-width="2" stroke-miterlimit="10"/>
<path d="M 58.75,23.53 V 204.52 C 58.75,204.88 58.99,205.2 59.35,205.34 L 127.7,231.25 C 127.98,231.36 128.3,231.36 128.58,231.25 L 197.49,205.33 C 197.85,205.19 198.09,204.87 198.09,204.51 V 23.53 C 198.09,23.03 197.63,22.63 197.07,22.63 H 59.77 C 59.21,22.63 58.75,23.03 58.75,23.53 Z" stroke="#00505B" stroke-width="1.5" stroke-miterlimit="10"/>
<path opacity="0.2" d="M 59.88,106.27 L 61.18,107.82 L 60.06,110.09 L 59.88,106.27 Z" fill="#002128"/>
<path opacity="0.2" d="M 66.12,115.91 L 68.11,114.13 L 70.96,116.81 L 69.61,120.31 L 66.12,115.91 Z" fill="#002128"/>
<path opacity="0.2" d="M 63.61,135.81 L 67.11,137.16 L 67.83,139.84 L 64.89,139.12 L 63.61,135.81 Z" fill="#002128"/>
<path opacity="0.2" d="M 63.97,128.61 L 66.29,127.48 L 67.11,129.75 L 65.21,130.2 L 63.97,128.61 Z" fill="#002128"/>
<path opacity="0.2" d="M 64.71,90.19 L 66.75,91.19 L 67.11,93.46 L 65.48,93.01 L 64.71,90.19 Z" fill="#002128"/>
<path opacity="0.2" d="M 67.83,75.81 L 70.01,76.08 L 71.24,78.9 L 72.82,79.08 L 73.22,81.11 L 70.28,80.43 L 67.83,75.81 Z" fill="#002128"/>
<path opacity="0.2" d="M 73.91,85.72 L 76.09,86.12 L 76.91,88.26 L 74.31,88.62 L 73.13,87.03 L 73.91,85.72 Z" fill="#002128"/>
<path opacity="0.2" d="M 72.11,98.05 L 74.66,99.01 L 74.13,100.51 L 72.11,98.05 Z" fill="#002128"/>
<path opacity="0.2" d="M 94.01,121.76 L 95.46,122.12 L 95.01,122.71 L 94.01,121.76 Z" fill="#002128"/>
<path opacity="0.2" d="M 191.08,96.32 L 193.02,97.64 V 100.09 L 191.08,99.41 V 96.32 Z" fill="#002128"/>
<path opacity="0.2" d="M 190.26,125.06 L 192.71,126.11 L 193.11,128.06 L 191.08,128.61 L 190.26,125.06 Z" fill="#002128"/>
<path opacity="0.2" d="M 189.44,145.47 L 190.72,144.74 L 192.06,146.01 L 190.81,147.19 L 189.44,145.47 Z" fill="#002128"/>
<path opacity="0.2" d="M 186.71,168.81 L 188.84,168.12 L 190.72,170.12 L 192.06,169.08 L 192.84,170.81 L 190.72,171.9 L 186.71,168.81 Z" fill="#002128"/>
<path d="M 138.39,216.21 L 117.38,216.21" stroke="#21808F" stroke-width="1.5" stroke-linecap="round" stroke-linejoin="round"/>
<path d="M 66.58,42.75 V 36.09 C 66.58,32.44 68.07,31.01 70.44,31.01 C 72.72,31.01 74.12,32.19 74.25,35.46 V 36.59 H 71.61 V 35.33 C 71.56,33.83 71.11,33.31 70.44,33.31 C 69.61,33.31 69.22,34.21 69.22,36.21 V 42.46 C 69.22,44.46 69.66,45.41 70.54,45.41 C 71.41,45.41 71.89,44.64 71.89,43.06 V 41.61 H 70.31 V 39.46 H 74.36 V 46.99 H 72.69 L 72.46,45.51 C 72.06,46.66 71.21,47.41 69.96,47.41 C 67.78,47.41 66.58,45.91 66.58,42.75 Z" fill="#F7F9E5" stroke="#00313A" stroke-width="0.5" stroke-miterlimit="10"/>
<path d="M 76.29,31.21 H 83.64 V 33.51 H 78.93 V 38.01 H 82.82 V 40.16 H 78.93 V 45.01 H 83.64 V 47.21 H 76.29 V 31.21 Z" fill="#F7F9E5" stroke="#00313A" stroke-width="0.5" stroke-miterlimit="10"/>
<path d="M 85.63,31.21 H 88.03 L 91.73,40.44 V 31.21 H 94.08 V 47.19 H 91.83 L 87.98,37.56 V 47.19 H 85.63 V 31.21 Z" fill="#F7F9E5" stroke="#00313A" stroke-width="0.5" stroke-miterlimit="10"/>
<path d="M 96.31,31.21 H 103.66 V 33.51 H 98.95 V 38.01 H 102.84 V 40.16 H 98.95 V 45.01 H 103.66 V 47.21 H 96.31 V 31.21 Z" fill="#F7F9E5" stroke="#00313A" stroke-width="0.5" stroke-miterlimit="10"/>
<path d="M 105.29,31.21 H 108.84 C 111.61,31.21 113.41,32.76 113.41,35.86 V 36.09 C 113.41,37.99 112.61,39.26 111.41,39.99 L 113.69,47.19 H 110.89 L 108.91,40.81 C 108.79,40.84 108.64,40.84 108.51,40.84 H 107.89 V 47.19 H 105.29 V 31.21 Z M 108.89,38.71 C 110.09,38.71 110.79,37.86 110.79,36.14 V 35.94 C 110.79,34.11 109.99,33.44 108.74,33.44 H 107.89 V 38.71 H 108.89 Z" fill="#F7F9E5" stroke="#00313A" stroke-width="0.5" stroke-miterlimit="10"/>
<path d="M 117.86,31.16 H 120.91 L 124.06,47.19 H 121.41 L 120.71,43.34 H 117.86 L 117.16,47.19 H 114.66 L 117.86,31.16 Z M 120.31,41.21 L 119.26,34.81 L 118.16,41.21 H 120.31 Z" fill="#F7F9E5" stroke="#00313A" stroke-width="0.5" stroke-miterlimit="10"/>
<path d="M 126.21,33.51 H 123.41 V 31.21 H 131.61 V 33.51 H 128.86 V 47.19 H 126.21 V 33.51 Z" fill="#F7F9E5" stroke="#00313A" stroke-width="0.5" stroke-miterlimit="10"/>
<path d="M 132.31,31.21 H 139.66 V 33.51 H 134.96 V 38.01 H 138.86 V 40.16 H 134.96 V 45.01 H 139.66 V 47.21 H 132.31 V 31.21 Z" fill="#F7F9E5" stroke="#00313A" stroke-width="0.5" stroke-miterlimit="10"/>
<path d="M 141.29,31.21 H 144.66 C 147.91,31.21 149.71,32.96 149.71,36.76 V 41.26 C 149.71,45.16 147.71,47.19 144.66,47.19 H 141.29 V 31.21 Z M 144.76,44.94 C 146.36,44.94 147.06,43.59 147.06,40.99 V 37.19 C 147.06,34.74 146.36,33.49 144.71,33.49 H 143.89 V 44.94 H 144.76 Z" fill="#F7F9E5" stroke="#00313A" stroke-width="0.5" stroke-miterlimit="10"/>
<path d="M 155.01,31.21 H 157.66 L 159.21,41.39 L 161.21,31.26 H 163.31 L 165.31,41.39 L 166.86,31.21 H 169.36 L 166.56,47.29 H 164.16 L 162.16,37.46 L 160.16,47.29 H 157.76 L 155.01,31.21 Z" fill="#F7F9E5" stroke="#00313A" stroke-width="0.5" stroke-miterlimit="10"/>
<path d="M 170.06,31.21 H 172.71 V 47.19 H 170.06 V 31.21 Z" fill="#F7F9E5" stroke="#00313A" stroke-width="0.5" stroke-miterlimit="10"/>
<path d="M 177.11,33.51 H 174.31 V 31.21 H 182.51 V 33.51 H 179.76 V 47.19 H 177.11 V 33.51 Z" fill="#F7F9E5" stroke="#00313A" stroke-width="0.5" stroke-miterlimit="10"/>
<path d="M 184.41,31.21 H 187.06 V 38.01 H 189.86 V 31.21 H 191.91 V 47.19 H 189.86 V 40.31 H 187.06 V 47.19 H 184.41 V 31.21 Z" fill="#F7F9E5" stroke="#00313A" stroke-width="0.5" stroke-miterlimit="10"/>
<path d="M 67.75,181.01 H 72.71 L 75.78,197.71 L 78.85,181.01 H 83.48 L 77.78,204.71 H 73.38 L 67.75,181.01 Z" fill="#F7F9E5" stroke="#00313A" stroke-width="0.75" stroke-miterlimit="10"/>
<path d="M 85.72,181.01 H 90.22 V 204.61 H 85.72 V 181.01 Z" fill="#F7F9E5" stroke="#00313A" stroke-width="0.75" stroke-miterlimit="10"/>
<path d="M 93.12,197.91 L 97.35,197.21 C 97.52,199.91 98.32,200.96 99.72,200.96 C 101.02,200.96 101.42,199.76 101.42,198.66 C 101.42,196.41 100.32,195.36 98.52,193.86 L 96.12,191.76 C 94.22,190.16 92.87,188.41 92.87,185.51 C 92.87,181.86 95.17,179.71 98.87,179.71 C 103.52,179.71 104.57,183.11 104.77,186.06 L 100.52,186.66 C 100.39,184.61 100.12,183.21 98.72,183.21 C 97.57,183.21 97.07,184.36 97.07,185.46 C 97.07,187.36 98.02,188.31 99.52,189.61 L 101.87,191.66 C 103.97,193.46 105.67,195.51 105.67,198.71 C 105.67,202.06 103.27,204.76 99.57,204.76 C 95.42,204.76 93.37,202.41 93.12,197.91 Z" fill="#F7F9E5" stroke="#00313A" stroke-width="0.75" stroke-miterlimit="10"/>
<path d="M 108.61,196.91 V 181.01 H 113.01 V 197.31 C 113.01,200.01 113.61,200.91 115.06,200.91 C 116.51,200.91 117.16,199.96 117.16,197.31 V 181.01 H 121.61 V 196.86 C 121.61,202.01 119.36,204.76 114.96,204.76 C 110.56,204.76 108.61,202.11 108.61,196.91 Z" fill="#F7F9E5" stroke="#00313A" stroke-width="0.75" stroke-miterlimit="10"/>
<path d="M 126.01,181.01 H 131.81 C 136.71,181.01 139.41,182.81 139.41,188.06 V 188.91 C 139.41,192.41 137.91,193.96 136.31,194.76 L 139.86,204.61 H 135.16 L 132.16,195.76 H 130.46 V 204.61 H 126.01 V 181.01 Z M 131.86,192.61 C 133.96,192.61 134.91,191.66 134.91,188.91 V 187.71 C 134.91,185.16 133.86,184.26 131.86,184.26 H 130.46 V 192.61 H 131.86 Z" fill="#F7F9E5" stroke="#00313A" stroke-width="0.75" stroke-miterlimit="10"/>
<path d="M 142.51,181.01 H 153.46 V 184.36 H 147.01 V 190.61 H 152.36 V 193.96 H 147.01 V 201.26 H 153.86 V 204.61 H 142.51 V 181.01 Z" fill="#F7F9E5" stroke="#00313A" stroke-width="0.75" stroke-miterlimit="10"/>
<path d="M 156.01,181.01 H 159.61 L 165.61,194.06 V 181.01 H 169.71 V 204.61 H 166.26 L 160.21,190.86 V 204.61 H 156.01 V 181.01 Z" fill="#F7F9E5" stroke="#00313A" stroke-width="0.75" stroke-miterlimit="10"/>
<path d="M 177.81,180.91 H 183.21 L 188.21,204.61 H 183.71 L 182.71,199.36 H 178.41 L 177.36,204.61 H 172.91 L 177.81,180.91 Z M 182.06,196.31 L 180.51,186.91 L 178.86,196.31 H 182.06 Z" fill="#F7F9E5" stroke="#00313A" stroke-width="0.75" stroke-miterlimit="10"/>
<path d="M 157.88,55.73 H 180.64 C 182.07,55.73 183.23,56.89 183.23,58.32 V 169.07 C 183.23,171.28 180.81,172.79 179.34,172.79 H 157.51 C 155.64,172.79 154.53,171.76 154.53,170.26 V 59.76 C 154.53,57.55 156.41,55.73 157.88,55.73 Z" fill="black"/>
<path d="M 159.43,58.51 H 179.18 V 168.66 C 179.18,169.16 178.77,169.56 178.27,169.56 H 159.43 V 58.51 Z" fill="#F7F9E5"/>
<path d="M 101.83,55.73 H 124.69 C 126.06,55.73 126.67,57.08 127.06,58.71 L 152.57,167.91 C 153.16,170.51 152.06,172.78 149.91,172.78 H 127.16 C 125.52,172.78 124.46,172.21 124.16,170.51 L 120.71,149.11 H 101.81 L 98.61,169.41 C 98.31,171.21 96.71,172.71 95.01,172.71 H 69.91 C 68.41,172.71 67.86,172.16 68.31,170.41 L 97.31,59.51 C 97.81,57.51 99.21,55.73 101.83,55.73 Z M 114.11,123.61 L 112.06,104.81 L 108.01,123.61 H 114.11 Z" fill="black"/>
<path d="M 101.86,58.71 H 123.86 L 149.76,167.11 C 149.96,167.96 128.41,168.41 128.41,168.41 L 124.41,144.41 H 100.41 L 94.81,168.41 H 73.16 L 101.86,58.71 Z M 112.01,84.41 L 103.61,127.71 H 120.61 L 112.61,84.41 H 112.01 Z" fill="#F7F9E5"/>
</svg>