<svg xmlns="http://www.w3.org/2000/svg" width="200" height="200" viewBox="0 0 200 200" fill="none">
<path d="M 39,6 V 12.8 C 41.85,12.8 43.97,15.11 43.97,17.42 C 43.97,19.73 41.85,21.73 39,21.73 V 26.26 C 41.85,26.26 43.97,28.57 43.97,30.88 C 43.97,33.19 41.85,34.87 39,34.87 V 39.13 C 41.85,39.13 43.97,41.44 43.97,43.75 C 43.97,46.06 41.85,47.74 39,47.74 V 52.82 C 41.85,52.82 43.97,54.83 43.97,57.14 C 43.97,59.45 41.85,61.45 39,61.45 V 66.53 C 41.85,66.53 43.97,68.54 43.97,70.85 C 43.97,73.16 41.85,75.17 39,75.17 V 79.98 C 41.85,79.98 43.97,82.29 43.97,84.6 C 43.97,86.91 41.85,88.92 39,88.92 V 93.72 C 41.85,93.72 43.97,95.73 43.97,98.04 C 43.97,100.35 41.85,102.36 39,102.36 V 106.88 C 41.85,106.88 43.97,109.19 43.97,111.5 C 43.97,113.81 41.85,115.49 39,115.49 V 119.75 C 41.85,119.75 43.97,122.06 43.97,124.37 C 43.97,126.68 41.85,128.36 39,128.36 V 132.62 C 41.85,132.62 43.97,134.93 43.97,137.24 C 43.97,139.55 41.85,141.23 39,141.23 V 145.49 C 41.85,145.49 43.97,147.8 43.97,150.11 C 43.97,152.42 41.85,154.1 39,154.1 V 157.31 C 41.85,157.31 43.97,159.62 43.97,161.93 C 43.97,164.24 41.85,165.92 39,165.92 V 169.61 C 41.85,169.61 43.97,171.92 43.97,174.23 C 43.97,176.54 41.85,178.22 39,178.22 V 181.43 C 41.85,181.43 43.97,183.74 43.97,186.05 C 43.97,188.36 41.85,189.71 39.73,189.71 V 194.52 H 45.71 C 45.71,191.88 47.83,190.2 50.33,190.2 C 52.83,190.2 54.6,191.88 54.6,194.2 H 58.79 C 58.79,191.88 60.91,190.2 63.41,190.2 C 65.91,190.2 67.68,191.88 67.68,194.2 H 71.87 C 71.87,191.88 73.99,190.2 76.49,190.2 C 78.99,190.2 80.76,191.88 80.76,194.2 H 84.95 C 84.95,191.88 87.07,190.2 89.57,190.2 C 92.07,190.2 93.84,191.88 93.84,194.2 H 97.33 C 97.33,191.88 99.45,190.2 101.95,190.2 C 104.45,190.2 106.22,191.88 106.22,194.2 H 110.41 C 110.41,191.88 112.53,190.2 115.03,190.2 C 117.53,190.2 119.3,191.88 119.3,194.2 H 123.49 C 123.49,191.88 125.61,190.2 128.11,190.2 C 130.61,190.2 132.38,191.88 132.38,194.2 H 136.57 C 136.57,191.88 138.69,190.2 141.19,190.2 C 143.69,190.2 145.46,191.88 145.46,194.2 H 148.28 C 148.28,191.88 150.4,190.2 152.9,190.2 C 155.4,190.2 156.81,191.88 156.81,193.89 L 160,193.91 V 188.2 C 157.88,188.2 156.47,186.52 156.47,184.21 C 156.47,181.9 158.59,179.96 160.71,179.96 V 176.75 C 158.59,176.75 156.47,175.07 156.47,172.76 C 156.47,170.45 158.59,168.44 160.71,168.44 V 165.23 C 158.59,165.23 156.47,163.55 156.47,161.24 C 156.47,158.93 158.59,156.62 160.71,156.62 V 153.41 C 158.59,153.41 156.47,151.73 156.47,149.42 C 156.47,147.11 158.59,144.8 160.71,144.8 V 141.23 C 158.59,141.23 156.47,139.55 156.47,137.24 C 156.47,134.93 158.59,132.62 160.71,132.62 V 128.36 C 158.59,128.36 156.47,126.68 156.47,124.37 C 156.47,122.06 158.59,119.75 160.71,119.75 V 115.49 C 158.59,115.49 156.47,113.81 156.47,111.5 C 156.47,109.19 158.59,106.88 160.71,106.88 V 102.62 C 158.59,102.62 156.47,100.94 156.47,98.63 C 156.47,96.32 158.59,94.01 160.71,94.01 V 89.75 C 158.59,89.75 156.47,87.74 156.47,85.43 C 156.47,83.12 158.59,80.81 160.71,80.81 V 76.55 C 158.59,76.55 156.47,74.54 156.47,72.23 C 156.47,69.92 158.59,67.61 160.71,67.61 V 63.91 C 158.59,63.91 156.47,61.9 156.47,59.59 C 156.47,57.28 158.59,54.97 160.71,54.97 V 50.44 C 158.59,50.44 156.47,48.76 156.47,46.45 C 156.47,44.14 158.59,41.83 160.71,41.83 V 37.57 C 158.59,37.57 156.47,35.56 156.47,33.25 C 156.47,30.94 158.59,28.63 160.71,28.63 V 24.37 C 158.59,24.37 156.47,22.06 156.47,19.75 C 156.47,17.44 158.59,15.13 160.71,15.13 V 6 H 154.73 C 154.73,8.64 152.61,10.32 150.49,10.32 C 148.37,10.32 146.25,8.31 146.25,6 H 141.34 C 141.34,8.64 139.22,10.32 137.1,10.32 C 134.98,10.32 132.86,8.31 132.86,6 H 129.37 C 129.37,8.64 127.25,10.32 125.13,10.32 C 123.01,10.32 120.89,8.31 120.89,6 H 116.35 C 116.35,8.64 114.23,10.32 112.11,10.32 C 109.99,10.32 107.87,8.31 107.87,6 H 103.68 C 103.68,8.64 101.56,10.32 99.44,10.32 C 97.32,10.32 95.2,8.31 95.2,6 H 90.66 C 90.66,8.64 88.54,10.32 86.42,10.32 C 84.3,10.32 82.18,8.31 82.18,6 H 78.69 C 78.69,8.64 76.57,10.32 74.45,10.32 C 72.33,10.32 70.21,8.31 70.21,6 H 66.02 C 66.02,8.64 63.9,10.32 61.78,10.32 C 59.66,10.32 57.54,8.31 57.54,6 H 53.35 C 53.35,8.64 51.23,10.32 49.11,10.32 C 46.99,10.32 44.87,8.31 44.87,6 H 39 Z" fill="#1A636D" stroke="black" stroke-width="2" stroke-linecap="round" stroke-linejoin="round"/>
<path d="M 48.63,15.81 V 185.19 H 150.63 V 15.81 H 48.63 Z" fill="#F7E9C6" stroke="black" stroke-width="1.2" stroke-linecap="round" stroke-linejoin="round"/>
<path d="M 51.82,18.99 V 182.46 H 148.18 V 18.99 H 51.82 Z" fill="black" stroke="black" stroke-width="1.2" stroke-linecap="round" stroke-linejoin="round"/>
<path d="M 53.23,19.82 V 181.22 H 147.23 V 19.82 H 53.23 Z" fill="#F7E9C6" stroke="black" stroke-width="1.2" stroke-linecap="round" stroke-linejoin="round"/>
<path d="M 55.24,23.16 V 178.84 H 144.76 V 23.16 H 55.24 Z" fill="#00B2B2" stroke="black" stroke-width="1.2" stroke-linecap="round" stroke-linejoin="round"/>
<path d="M 64.12,159.06 L 66.18,167.77 L 68.38,159.06 H 71.06 L 67.59,173.11 H 64.85 L 60.79,159.06 H 64.12 Z" fill="#F4A671" stroke="black" stroke-width="0.75" stroke-miterlimit="10"/>
<path d="M 75.56,159.06 V 173.11 H 72.69 V 159.06 H 75.56 Z" fill="#F4A671" stroke="black" stroke-width="0.75" stroke-miterlimit="10"/>
<path d="M 83.06,163.29 C 82.72,162.08 82.23,161.65 81.44,161.65 C 80.65,161.65 80.41,162.25 80.41,162.93 C 80.41,164.81 85.75,164.96 85.75,169.19 C 85.75,171.68 84.07,173.28 81.48,173.28 C 79.31,173.28 77.68,172.16 77.02,169.28 L 79.84,168.66 C 80.09,170.26 81.06,170.86 81.81,170.86 C 82.48,170.86 83.08,170.36 83.08,169.47 C 83.08,167.16 77.74,167.12 77.74,163.23 C 77.74,160.92 79.17,159.24 81.72,159.24 C 84.11,159.24 85.44,160.75 85.9,162.76 L 83.06,163.29 Z" fill="#F4A671" stroke="black" stroke-width="0.75" stroke-miterlimit="10"/>
<path d="M 90.73,159.06 V 168.7 C 90.73,169.86 91.23,170.46 92.35,170.46 C 93.47,170.46 93.99,169.79 93.99,168.57 V 159.06 H 96.86 V 168.28 C 96.86,171.27 95.22,173.11 92.35,173.11 C 89.48,173.11 87.86,171.51 87.86,168.32 V 159.06 H 90.73 Z" fill="#F4A671" stroke="black" stroke-width="0.75" stroke-miterlimit="10"/>
<path d="M 102.07,159.06 C 104.94,159.06 106.82,160.18 106.82,163.46 C 106.82,165.14 106.15,166.53 104.88,167.32 L 107.21,173.11 H 104.06 L 102.22,168.11 H 101.06 V 173.11 H 98.19 V 159.06 H 102.07 Z M 102.16,165.61 C 103.28,165.61 103.95,164.94 103.95,163.41 C 103.95,161.73 103.24,161.36 101.91,161.36 H 101.06 V 165.61 H 102.16 Z" fill="#F4A671" stroke="black" stroke-width="0.75" stroke-miterlimit="10"/>
<path d="M 116.68,159.06 V 161.61 H 112.03 V 164.81 H 115.78 V 167.21 H 112.03 V 170.61 H 116.68 V 173.11 H 109.16 V 159.06 H 116.68 Z" fill="#F4A671" stroke="black" stroke-width="0.75" stroke-miterlimit="10"/>
<path d="M 121.01,159.06 L 124.39,166.91 H 124.43 V 159.06 H 127.06 V 173.11 H 124.43 L 120.81,164.81 H 120.77 V 173.11 H 118.14 V 159.06 H 121.01 Z" fill="#F4A671" stroke="black" stroke-width="0.75" stroke-miterlimit="10"/>
<path d="M 134.92,159.06 L 138.52,173.11 H 135.56 L 134.85,170.11 H 131.53 L 130.78,173.11 H 127.91 L 131.74,159.06 H 134.92 Z M 133.24,162.46 L 132.08,167.71 H 134.45 L 133.28,162.46 H 133.24 Z" fill="#F4A671" stroke="black" stroke-width="0.75" stroke-miterlimit="10"/>
<path d="M 64.28,28.11 C 66.34,28.11 67.29,29.43 67.29,31.7 V 32.21 H 65.46 V 31.54 C 65.46,30.51 65.08,30.08 64.37,30.08 C 63.66,30.08 63.23,30.71 63.23,32.12 V 35.76 C 63.23,37.08 63.7,37.71 64.45,37.71 C 64.96,37.71 65.33,37.46 65.59,37.21 V 35.42 H 64.62 V 33.86 H 67.4 V 38.94 H 66.01 L 65.88,38.11 C 65.41,38.73 64.74,39.11 63.91,39.11 C 62.19,39.11 61.07,37.71 61.07,35.21 V 31.91 C 61.07,29.64 62.23,28.11 64.28,28.11 Z" fill="white" stroke="black" stroke-width="0.5" stroke-miterlimit="10"/>
<path d="M 72.78,28.32 V 29.92 H 69.91 V 32.69 H 72.18 V 34.31 H 69.91 V 37.31 H 72.78 V 38.91 H 68.08 V 28.32 H 72.78 Z" fill="white" stroke="black" stroke-width="0.5" stroke-miterlimit="10"/>
<path d="M 75.09,28.32 L 77.42,34.41 H 77.46 V 28.32 H 79.25 V 38.91 H 77.63 L 75.13,32.52 H 75.09 V 38.91 H 73.31 V 28.32 H 75.09 Z" fill="white" stroke="black" stroke-width="0.5" stroke-miterlimit="10"/>
<path d="M 84.33,28.32 V 29.92 H 81.46 V 32.69 H 83.73 V 34.31 H 81.46 V 37.31 H 84.33 V 38.91 H 79.63 V 28.32 H 84.33 Z" fill="white" stroke="black" stroke-width="0.5" stroke-miterlimit="10"/>
<path d="M 86.96,28.32 C 88.83,28.32 89.99,29.21 89.99,31.62 C 89.99,32.88 89.52,33.89 88.65,34.52 L 90.16,38.91 H 88.24 L 87.04,34.99 H 86.25 V 38.91 H 84.42 V 28.32 H 86.96 Z M 87.01,33.47 C 87.76,33.47 88.23,32.92 88.23,31.68 C 88.23,30.36 87.68,30 86.75,30 H 86.21 V 33.47 H 87.01 Z" fill="white" stroke="black" stroke-width="0.5" stroke-miterlimit="10"/>
<path d="M 94.66,28.32 L 96.97,38.91 H 95.05 L 94.58,36.41 H 92.52 L 92.01,38.91 H 90.18 L 92.64,28.32 H 94.66 Z M 93.58,31.2 L 92.83,34.99 H 94.34 L 93.61,31.2 H 93.58 Z" fill="white" stroke="black" stroke-width="0.5" stroke-miterlimit="10"/>
<path d="M 100.92,28.32 V 29.92 H 99.09 V 38.91 H 97.26 V 29.92 H 95.43 V 28.32 H 100.92 Z" fill="white" stroke="black" stroke-width="0.5" stroke-miterlimit="10"/>
<path d="M 106.17,28.32 V 29.92 H 103.3 V 32.69 H 105.57 V 34.31 H 103.3 V 37.31 H 106.17 V 38.91 H 101.47 V 28.32 H 106.17 Z" fill="white" stroke="black" stroke-width="0.5" stroke-miterlimit="10"/>
<path d="M 109.22,28.32 C 111.28,28.32 112.44,29.61 112.44,32.02 V 35.02 C 112.44,37.52 111.28,38.92 109.22,38.92 H 106.49 V 28.32 H 109.22 Z M 109.22,30 H 108.32 V 37.31 H 109.11 C 110.04,37.31 110.59,36.56 110.59,35.03 V 32.3 C 110.6,30.81 110.09,30 109.22,30 Z" fill="white" stroke="black" stroke-width="0.5" stroke-miterlimit="10"/>
<path d="M 116.89,28.32 L 117.78,34.62 H 117.82 L 119.21,28.32 H 120.41 L 121.73,34.62 H 121.77 L 122.78,28.32 H 124.52 L 122.46,38.91 H 120.91 L 119.52,32.22 H 119.48 L 118.09,38.91 H 116.54 L 114.67,28.32 H 116.89 Z" fill="white" stroke="black" stroke-width="0.5" stroke-miterlimit="10"/>
<path d="M 126.08,28.32 V 38.91 H 124.25 V 28.32 H 126.08 Z" fill="white" stroke="black" stroke-width="0.5" stroke-miterlimit="10"/>
<path d="M 131.57,28.32 V 29.92 H 129.74 V 38.91 H 127.91 V 29.92 H 126.08 V 28.32 H 131.57 Z" fill="white" stroke="black" stroke-width="0.5" stroke-miterlimit="10"/>
<path d="M 133.79,28.32 V 32.71 H 135.85 V 28.32 H 137.68 V 38.91 H 135.85 V 34.49 H 133.79 V 38.91 H 131.96 V 28.32 H 133.79 Z" fill="white" stroke="black" stroke-width="0.5" stroke-miterlimit="10"/>
<path d="M 98.01,49.39 H 96.93 L 96.54,45.9 H 80.42 L 61.72,152.73 H 78.93 L 83.69,128.71 H 95.06 L 99.91,152.73 H 131.31 V 49.39 H 129.73 V 45.9 H 113.96 V 138.24 L 98.01,49.39 Z M 86.04,108.26 L 88.91,89.19 L 92.17,108.26 H 86.04 Z" fill="black" stroke="black" stroke-width="1.2" stroke-miterlimit="10"/>
<path d="M 81.11,46.22 L 62.41,149.94 H 76.54 L 80.78,122.34 H 96.2 L 100.16,148.96 H 112.07 L 95.51,46.22 H 81.11 Z M 83.21,109.54 L 88.66,67.02 L 93.91,109.54 H 83.21 Z" fill="white" stroke="#00B2B2" stroke-width="1.2" stroke-miterlimit="10"/>
<path d="M 114.48,46.22 V 148.96 H 128.61 V 46.22 H 114.48 Z" fill="white" stroke="black" stroke-width="1.2" stroke-miterlimit="10"/>
</svg>